<svg xmlns="http://www.w3.org/2000/svg" width="181" height="68" viewBox="0 0 181 68">
  <metadata><?xpacket begin="﻿" id="W5M0MpCehiHzreSzNTczkc9d"?>
<x:xmpmeta xmlns:x="adobe:ns:meta/" x:xmptk="Adobe XMP Core 5.6-c138 79.159824, 2016/09/14-01:09:01        ">
   <rdf:RDF xmlns:rdf="http://www.w3.org/1999/02/22-rdf-syntax-ns#">
      <rdf:Description rdf:about=""/>
   </rdf:RDF>
</x:xmpmeta>
                                                                                                    
                                                                                                    
                                                                                                    
                                                                                                    
                                                                                                    
                                                                                                    
                                                                                                    
                                                                                                    
                                                                                                    
                                                                                                    
                                                                                                    
                                                                                                    
                                                                                                    
                                                                                                    
                                                                                                    
                                                                                                    
                                                                                                    
                                                                                                    
                                                                                                    
                                                                                                    
                           
<?xpacket end="w"?></metadata>
<defs>
    <style>
      .cls-1, .cls-2 {
        fill: #fff;
        fill-rule: evenodd;
      }

      .cls-2 {
        opacity: 0.55;
      }
    </style>
  </defs>
  <path id="prorigo_copy_2" data-name="prorigo  copy 2" class="cls-1" d="M10.785,30.108q0-4.827,3.8-4.827A3.953,3.953,0,0,1,17.3,26.288a3.146,3.146,0,0,1,1.134,2.438A3.305,3.305,0,0,1,17.337,31.2a3.668,3.668,0,0,1-2.623,1.043,4.063,4.063,0,0,1-2.426-.9V41.34q1.74,0.169,2.637.17a13.455,13.455,0,0,0,9.492-3.736A11.737,11.737,0,0,0,28.424,28.9a11.56,11.56,0,0,0-4.034-8.927,14.263,14.263,0,0,0-9.914-3.639,14.652,14.652,0,0,0-5.761,1.189,12.907,12.907,0,0,0-4.627,3.2A12.96,12.96,0,0,0,.923,29.769V49.951h9.861V30.108Zm35-13.8a11.213,11.213,0,0,0-8.306,3.117,11.3,11.3,0,0,0-3.111,8.357V41H44.23V29.526q0-3.784,2.689-3.784a4.13,4.13,0,0,1,1.872.534v-9.7a21.934,21.934,0,0,0-3.006-.267h0Zm9.978,3.627a11.517,11.517,0,0,0-4.06,8.939,11.634,11.634,0,0,0,4.06,8.915,14.784,14.784,0,0,0,19.551.012A11.852,11.852,0,0,0,75.368,20a13.613,13.613,0,0,0-9.584-3.7A14.5,14.5,0,0,0,55.764,19.932Zm12.472,6.38a3.539,3.539,0,0,1-.013,5.155,3.922,3.922,0,0,1-5.379,0,3.539,3.539,0,0,1-.013-5.155A3.989,3.989,0,0,1,68.236,26.312ZM96.513,16.305a11.213,11.213,0,0,0-8.306,3.117A11.3,11.3,0,0,0,85.1,27.78V41h9.861V29.526q0-3.784,2.689-3.784a4.13,4.13,0,0,1,1.872.534v-9.7a21.934,21.934,0,0,0-3.006-.267h0Zm7.526,0.51V41H113.9V16.815h-9.861Zm1.49-9.5a4.057,4.057,0,0,0-.079,6.174,5.791,5.791,0,0,0,7.093,0,4.058,4.058,0,0,0-.08-6.174A5.28,5.28,0,0,0,105.529,7.318Zm27.9,24.149a3.6,3.6,0,0,1-2.518-.922,2.982,2.982,0,0,1-1.015-2.3,3.1,3.1,0,0,1,1.067-2.317,3.52,3.52,0,0,1,2.492-1.007q3.348,0,3.349,3.808v9.1a6.688,6.688,0,0,1-1.45,4.621,5.247,5.247,0,0,1-4.114,1.613,8.589,8.589,0,0,1-3.9-.97v8.248a17.822,17.822,0,0,0,4.931.9,13.985,13.985,0,0,0,10.4-4.039,14.307,14.307,0,0,0,4-10.516V29.72q0-6.04-2.689-9.218a11.055,11.055,0,0,0-4.43-3.056,15.62,15.62,0,0,0-5.906-1.14,14.132,14.132,0,0,0-9.783,3.566,11.3,11.3,0,0,0-3.981,8.757,11.324,11.324,0,0,0,11.391,11.45,12.669,12.669,0,0,0,4.087-.728V31.03a4.452,4.452,0,0,1-1.925.437h0Zm23.109-11.535a11.518,11.518,0,0,0-4.061,8.939,11.635,11.635,0,0,0,4.061,8.915,14.784,14.784,0,0,0,19.551.012A11.852,11.852,0,0,0,176.137,20a13.613,13.613,0,0,0-9.584-3.7A14.5,14.5,0,0,0,156.533,19.932Zm12.472,6.38a3.539,3.539,0,0,1-.014,5.155,3.921,3.921,0,0,1-5.378,0,3.539,3.539,0,0,1-.014-5.155A3.99,3.99,0,0,1,169.005,26.312Z"/>
  <path id="Parenting_Products_Services_copy_6" data-name="Parenting Products &amp; Services copy 6" class="cls-1" d="M4.824,61.8a2.763,2.763,0,0,0,2.156-.881,3.248,3.248,0,0,0,.8-2.266,2.9,2.9,0,0,0-.764-2.147,2.912,2.912,0,0,0-2.151-.762H2.421v9.5H3.752V61.8H4.824Zm-0.1-4.757a1.471,1.471,0,0,1,1.651,1.676,1.842,1.842,0,0,1-.449,1.325,1.725,1.725,0,0,1-1.308.471H3.752V57.047H4.723Zm9.068,3.79q0-2.531-2.179-2.531a3.573,3.573,0,0,0-2.1.636v1.345a2.549,2.549,0,0,1,1.853-.835q1.168,0,1.168,1.451l-1.707.285a2.038,2.038,0,0,0-1.876,2.24,2.092,2.092,0,0,0,.48,1.438,1.68,1.68,0,0,0,1.328.543,1.881,1.881,0,0,0,1.746-1.219h0.023v1.06h1.263V60.837Zm-1.258,1.67a1.941,1.941,0,0,1-.39,1.242,1.206,1.206,0,0,1-.985.494,0.919,0.919,0,0,1-.7-0.275,0.983,0.983,0,0,1-.261-0.706,1.023,1.023,0,0,1,.284-0.825,1.725,1.725,0,0,1,.845-0.321l1.207-.2v0.59Zm6.9-4.035a0.96,0.96,0,0,0-.539-0.126,1.217,1.217,0,0,0-.884.4,2.455,2.455,0,0,0-.587,1.117H17.4v-1.4h-1.3V65.25h1.3V62a3.13,3.13,0,0,1,.387-1.676,1.127,1.127,0,0,1,.966-0.616,0.964,0.964,0,0,1,.68.219V58.472Zm6.4,3.214a4.181,4.181,0,0,0-.646-2.485,2.119,2.119,0,0,0-1.825-.895,2.431,2.431,0,0,0-1.974,1,4.015,4.015,0,0,0-.795,2.581,4.138,4.138,0,0,0,.722,2.6,2.385,2.385,0,0,0,1.991.924,3.4,3.4,0,0,0,2.078-.583V63.587a2.563,2.563,0,0,1-1.69.649,1.663,1.663,0,0,1-1.289-.51,2.147,2.147,0,0,1-.491-1.451H25.83v-0.59Zm-3.919-.5a2.408,2.408,0,0,1,.48-1.266,1.183,1.183,0,0,1,.952-0.484,1.041,1.041,0,0,1,.9.461,2.233,2.233,0,0,1,.331,1.289H21.911ZM32.906,61.1a3.656,3.656,0,0,0-.494-2.077,1.63,1.63,0,0,0-1.432-.719,2.021,2.021,0,0,0-1.864,1.285H29.093V58.465H27.784V65.25h1.308V61.38a2.183,2.183,0,0,1,.387-1.328,1.174,1.174,0,0,1,.983-0.527q1.14,0,1.14,1.9V65.25h1.3V61.1Zm5.334,2.856a0.811,0.811,0,0,1-.573.225,0.708,0.708,0,0,1-.618-0.258,1.52,1.52,0,0,1-.185-0.861V59.671H38.24V58.465H36.864V56.457l-1.3.437v1.57H34.6v1.206h0.96v3.836q0,1.9,1.673,1.9a1.966,1.966,0,0,0,1.005-.225V63.958Zm3.055-7.173a0.883,0.883,0,0,0,.23-0.613,0.9,0.9,0,0,0-.23-0.63,0.733,0.733,0,0,0-.562-0.252,0.712,0.712,0,0,0-.547.252,0.9,0.9,0,0,0-.227.63,0.88,0.88,0,0,0,.227.623,0.721,0.721,0,0,0,.547.245A0.728,0.728,0,0,0,41.294,56.785Zm0.084,1.68h-1.3V65.25h1.3V58.465ZM48.914,61.1a3.657,3.657,0,0,0-.494-2.077,1.63,1.63,0,0,0-1.432-.719,2.021,2.021,0,0,0-1.864,1.285H45.1V58.465H43.793V65.25H45.1V61.38a2.183,2.183,0,0,1,.387-1.328,1.174,1.174,0,0,1,.983-0.527q1.14,0,1.14,1.9V65.25h1.3V61.1Zm7.535-2.637h-1.3v0.941H55.124a1.79,1.79,0,0,0-1.69-1.1,2.173,2.173,0,0,0-1.9,1.02,4.837,4.837,0,0,0-.691,2.75,4.114,4.114,0,0,0,.643,2.428,1.985,1.985,0,0,0,1.693.9,2.072,2.072,0,0,0,1.943-1.3h0.023v0.742q0,2.379-2.05,2.379a3.236,3.236,0,0,1-1.791-.636V68a4.123,4.123,0,0,0,1.96.444q3.184,0,3.184-3.737V58.465ZM54.737,63.61a1.3,1.3,0,0,1-1.095.573,1.227,1.227,0,0,1-1.064-.6,2.834,2.834,0,0,1-.4-1.6,3.309,3.309,0,0,1,.418-1.806,1.311,1.311,0,0,1,1.16-.646,1.23,1.23,0,0,1,1,.507,1.908,1.908,0,0,1,.4,1.223v0.881A2.416,2.416,0,0,1,54.737,63.61ZM65.282,61.8a2.763,2.763,0,0,0,2.156-.881,3.248,3.248,0,0,0,.8-2.266,2.653,2.653,0,0,0-2.914-2.909H62.879v9.5H64.21V61.8h1.073Zm-0.1-4.757a1.471,1.471,0,0,1,1.651,1.676,1.843,1.843,0,0,1-.449,1.325,1.725,1.725,0,0,1-1.308.471H64.21V57.047h0.971ZM73.5,58.472a0.96,0.96,0,0,0-.539-0.126,1.217,1.217,0,0,0-.884.4,2.454,2.454,0,0,0-.587,1.117H71.47v-1.4h-1.3V65.25h1.3V62a3.13,3.13,0,0,1,.387-1.676,1.127,1.127,0,0,1,.966-0.616,0.965,0.965,0,0,1,.68.219V58.472Zm6.264,5.96a3.941,3.941,0,0,0,.811-2.6,4.024,4.024,0,0,0-.752-2.591,2.546,2.546,0,0,0-2.1-.934,2.8,2.8,0,0,0-2.232.961,3.96,3.96,0,0,0-.828,2.67,3.8,3.8,0,0,0,.794,2.521,2.629,2.629,0,0,0,2.125.951A2.689,2.689,0,0,0,79.766,64.432Zm-0.938-4.29a3.069,3.069,0,0,1,.413,1.729,3.021,3.021,0,0,1-.413,1.716,1.346,1.346,0,0,1-1.182.6,1.416,1.416,0,0,1-1.2-.613A2.788,2.788,0,0,1,76,61.9a2.971,2.971,0,0,1,.444-1.736,1.4,1.4,0,0,1,1.207-.63A1.342,1.342,0,0,1,78.829,60.141Zm9.015-4.936h-1.3v4.2H86.519a1.762,1.762,0,0,0-1.69-1.1A2.182,2.182,0,0,0,82.95,59.32a4.64,4.64,0,0,0-.7,2.7,4.263,4.263,0,0,0,.637,2.482,1.977,1.977,0,0,0,1.7.911A2.047,2.047,0,0,0,86.519,64.1h0.022V65.25h1.3V55.205Zm-1.7,8.405a1.276,1.276,0,0,1-1.084.58,1.241,1.241,0,0,1-1.081-.6,2.9,2.9,0,0,1-.4-1.633,3.248,3.248,0,0,1,.418-1.782,1.3,1.3,0,0,1,1.148-.643,1.241,1.241,0,0,1,1.016.5,1.913,1.913,0,0,1,.4,1.226v0.888A2.445,2.445,0,0,1,86.142,63.61Zm9.13-5.145h-1.3v3.9a2.16,2.16,0,0,1-.373,1.319,1.139,1.139,0,0,1-.952.5q-1.2,0-1.2-1.829v-3.9h-1.3V62.52q0,2.889,2.038,2.889a1.857,1.857,0,0,0,1.763-1.232H93.97V65.25h1.3V58.465ZM101.8,63.6a1.907,1.907,0,0,1-1.325.59,1.632,1.632,0,0,1-1.334-.61,2.557,2.557,0,0,1-.5-1.663,2.678,2.678,0,0,1,.528-1.726,1.657,1.657,0,0,1,1.354-.659,1.908,1.908,0,0,1,1.28.53V58.631a2.875,2.875,0,0,0-1.387-.325,2.789,2.789,0,0,0-2.26,1.017,4.079,4.079,0,0,0-.845,2.693,3.7,3.7,0,0,0,.786,2.448,2.557,2.557,0,0,0,2.066.944,2.831,2.831,0,0,0,1.634-.47V63.6Zm5.037,0.358a0.811,0.811,0,0,1-.573.225,0.706,0.706,0,0,1-.617-0.258,1.516,1.516,0,0,1-.186-0.861V59.671h1.376V58.465h-1.376V56.457l-1.3.437v1.57H103.2v1.206h0.961v3.836q0,1.9,1.673,1.9a1.967,1.967,0,0,0,1.005-.225V63.958Zm3.111,1.451a3.456,3.456,0,0,0,.929-0.123,2.327,2.327,0,0,0,.778-0.374,1.876,1.876,0,0,0,.539-0.636,1.907,1.907,0,0,0,.2-0.9,2.138,2.138,0,0,0-.112-0.732,1.7,1.7,0,0,0-.32-0.543,2.3,2.3,0,0,0-.5-0.421,6.75,6.75,0,0,0-.665-0.364c-0.188-.075-0.353-0.145-0.5-0.209a1.9,1.9,0,0,1-.371-0.212,0.782,0.782,0,0,1-.233-0.268,0.807,0.807,0,0,1-.079-0.371,0.7,0.7,0,0,1,.079-0.328,0.755,0.755,0,0,1,.219-0.255,1.069,1.069,0,0,1,.34-0.166,1.55,1.55,0,0,1,.446-0.06,2.155,2.155,0,0,1,1.393.49V58.591a3.425,3.425,0,0,0-1.427-.285,2.95,2.95,0,0,0-.87.129,2.349,2.349,0,0,0-.752.384,1.9,1.9,0,0,0-.528.63,1.834,1.834,0,0,0-.2.865,2.275,2.275,0,0,0,.1.7,1.646,1.646,0,0,0,.283.533,2.009,2.009,0,0,0,.472.421,5.209,5.209,0,0,0,.637.351q0.287,0.126.52,0.225a2.016,2.016,0,0,1,.4.225,1.038,1.038,0,0,1,.272.288,0.726,0.726,0,0,1,.1.394q0,0.822-1.179.822a2.357,2.357,0,0,1-1.611-.656v1.425a3.4,3.4,0,0,0,1.634.371h0Zm15.587-.152q-0.522-.636-0.907-1.1t-0.637-.782a5.328,5.328,0,0,0,.977-3.187h-1.14a4.9,4.9,0,0,1-.039.609,5.676,5.676,0,0,1-.109.6,4.833,4.833,0,0,1-.169.557,3.463,3.463,0,0,1-.216.477q-0.467-.563-0.918-1.12t-0.9-1.12a5.832,5.832,0,0,0,.817-0.557,2.778,2.778,0,0,0,.539-0.583,2.155,2.155,0,0,0,.3-0.653,3.018,3.018,0,0,0,.092-0.779,2.2,2.2,0,0,0-.146-0.812,1.861,1.861,0,0,0-.415-0.646,1.9,1.9,0,0,0-.649-0.424,2.245,2.245,0,0,0-.845-0.152,2.318,2.318,0,0,0-.9.172,2.1,2.1,0,0,0-1.174,1.193,2.466,2.466,0,0,0-.165.914,4.047,4.047,0,0,0,.848,2.2,3.228,3.228,0,0,0-1.842,2.756,2.875,2.875,0,0,0,.188,1.06,2.339,2.339,0,0,0,.533.818,2.375,2.375,0,0,0,.834.527,3.069,3.069,0,0,0,1.095.186,3.521,3.521,0,0,0,.713-0.073,3.624,3.624,0,0,0,.683-0.212,3.55,3.55,0,0,0,.623-0.341,3.392,3.392,0,0,0,.536-0.454l0.736,0.921h1.656Zm-4.666-5.831a2.913,2.913,0,0,1-.736-1.577,1.4,1.4,0,0,1,.076-0.47,1.121,1.121,0,0,1,.214-0.368,0.913,0.913,0,0,1,.331-0.238,1.081,1.081,0,0,1,.43-0.083,0.709,0.709,0,0,1,.336.083,0.9,0.9,0,0,1,.276.225,1.145,1.145,0,0,1,.188.335,1.207,1.207,0,0,1,.07.411,2.019,2.019,0,0,1-1.185,1.683h0Zm-0.2,4.8a1.485,1.485,0,0,1-.565-0.106,1.291,1.291,0,0,1-.452-0.3,1.437,1.437,0,0,1-.3-0.48,1.734,1.734,0,0,1-.11-0.633,1.841,1.841,0,0,1,.273-1.007,2.668,2.668,0,0,1,.89-0.808q1.4,1.782,2.055,2.584a2.407,2.407,0,0,1-1.791.755h0ZM131.248,65.1a4.886,4.886,0,0,0,.584.169q0.309,0.069.6,0.106a4.187,4.187,0,0,0,.5.036,4.638,4.638,0,0,0,1.151-.139,2.723,2.723,0,0,0,.963-0.451,2.213,2.213,0,0,0,.665-0.808,2.716,2.716,0,0,0,.248-1.219,2.607,2.607,0,0,0-.166-0.958,2.84,2.84,0,0,0-.449-0.765,3.949,3.949,0,0,0-.657-0.63,9.513,9.513,0,0,0-.795-0.543c-0.273-.141-0.514-0.273-0.721-0.394a3.285,3.285,0,0,1-.528-0.374,1.368,1.368,0,0,1-.329-0.424,1.248,1.248,0,0,1-.112-0.55,1.087,1.087,0,0,1,.146-0.576,1.227,1.227,0,0,1,.379-0.391,1.588,1.588,0,0,1,.528-0.219,2.693,2.693,0,0,1,.592-0.066,2.623,2.623,0,0,1,1.763.583V55.927a3.8,3.8,0,0,0-1.841-.338,3.876,3.876,0,0,0-1.09.156,2.874,2.874,0,0,0-.952.477,2.411,2.411,0,0,0-.673.815A2.49,2.49,0,0,0,130.8,58.2a2.744,2.744,0,0,0,.149.947,2.52,2.52,0,0,0,.41.725,3.447,3.447,0,0,0,.615.586q0.354,0.265.763,0.523,0.383,0.205.716,0.394a3.956,3.956,0,0,1,.582.394,1.615,1.615,0,0,1,.384.454,1.189,1.189,0,0,1,.138.586,1.16,1.16,0,0,1-.413.961,1.981,1.981,0,0,1-1.255.331,2.609,2.609,0,0,1-.528-0.06,3.753,3.753,0,0,1-.573-0.169,3.161,3.161,0,0,1-.541-0.268,2.126,2.126,0,0,1-.441-0.358v1.623A1.714,1.714,0,0,0,131.248,65.1Zm11.624-3.412a4.184,4.184,0,0,0-.646-2.485,2.118,2.118,0,0,0-1.825-.895,2.432,2.432,0,0,0-1.974,1,4.019,4.019,0,0,0-.794,2.581,4.138,4.138,0,0,0,.721,2.6,2.386,2.386,0,0,0,1.991.924,3.407,3.407,0,0,0,2.078-.583V63.587a2.565,2.565,0,0,1-1.691.649,1.661,1.661,0,0,1-1.288-.51,2.146,2.146,0,0,1-.492-1.451h3.92v-0.59Zm-3.92-.5a2.411,2.411,0,0,1,.48-1.266,1.185,1.185,0,0,1,.952-0.484,1.042,1.042,0,0,1,.9.461,2.236,2.236,0,0,1,.331,1.289h-2.662Zm9.209-2.717a0.958,0.958,0,0,0-.539-0.126,1.216,1.216,0,0,0-.884.4,2.452,2.452,0,0,0-.587,1.117h-0.023v-1.4h-1.3V65.25h1.3V62a3.132,3.132,0,0,1,.388-1.676,1.127,1.127,0,0,1,.966-0.616,0.964,0.964,0,0,1,.679.219V58.472Zm5.677-.007L152.5,63.236a5.616,5.616,0,0,0-.158.888h-0.016a5.189,5.189,0,0,0-.18-0.914l-1.275-4.744h-1.415l2.117,6.785h1.41l2.223-6.785h-1.37Zm4.183-1.68a0.881,0.881,0,0,0,.231-0.613,0.9,0.9,0,0,0-.231-0.63,0.73,0.73,0,0,0-.561-0.252,0.713,0.713,0,0,0-.548.252,0.907,0.907,0,0,0-.227.63,0.882,0.882,0,0,0,.227.623A0.74,0.74,0,0,0,158.021,56.785Zm0.085,1.68h-1.3V65.25h1.3V58.465Zm6.53,5.135a1.909,1.909,0,0,1-1.325.59,1.632,1.632,0,0,1-1.334-.61,2.559,2.559,0,0,1-.5-1.663,2.678,2.678,0,0,1,.528-1.726,1.657,1.657,0,0,1,1.353-.659,1.91,1.91,0,0,1,1.281.53V58.631a2.875,2.875,0,0,0-1.387-.325,2.79,2.79,0,0,0-2.261,1.017,4.081,4.081,0,0,0-.845,2.693,3.7,3.7,0,0,0,.786,2.448,2.56,2.56,0,0,0,2.067.944,2.833,2.833,0,0,0,1.634-.47V63.6Zm6.873-1.915a4.184,4.184,0,0,0-.646-2.485,2.118,2.118,0,0,0-1.825-.895,2.432,2.432,0,0,0-1.974,1,4.019,4.019,0,0,0-.794,2.581,4.138,4.138,0,0,0,.721,2.6,2.386,2.386,0,0,0,1.991.924,3.407,3.407,0,0,0,2.078-.583V63.587a2.565,2.565,0,0,1-1.691.649,1.661,1.661,0,0,1-1.288-.51,2.146,2.146,0,0,1-.492-1.451h3.92v-0.59Zm-3.92-.5a2.411,2.411,0,0,1,.48-1.266,1.185,1.185,0,0,1,.952-0.484,1.042,1.042,0,0,1,.9.461,2.236,2.236,0,0,1,.331,1.289h-2.662Zm7.148,4.221a3.458,3.458,0,0,0,.93-0.123,2.312,2.312,0,0,0,.777-0.374,1.868,1.868,0,0,0,.54-0.636,1.919,1.919,0,0,0,.2-0.9,2.136,2.136,0,0,0-.113-0.732,1.677,1.677,0,0,0-.32-0.543,2.3,2.3,0,0,0-.5-0.421,6.889,6.889,0,0,0-.666-0.364q-0.281-.113-0.5-0.209a1.9,1.9,0,0,1-.37-0.212,0.782,0.782,0,0,1-.233-0.268,0.794,0.794,0,0,1-.079-0.371,0.686,0.686,0,0,1,.079-0.328,0.755,0.755,0,0,1,.219-0.255,1.064,1.064,0,0,1,.339-0.166,1.557,1.557,0,0,1,.447-0.06,2.15,2.15,0,0,1,1.392.49V58.591a3.417,3.417,0,0,0-1.426-.285,2.95,2.95,0,0,0-.87.129,2.354,2.354,0,0,0-.753.384,1.894,1.894,0,0,0-.527.63,1.822,1.822,0,0,0-.2.865,2.308,2.308,0,0,0,.095.7,1.668,1.668,0,0,0,.284.533,1.989,1.989,0,0,0,.472.421,5.136,5.136,0,0,0,.637.351q0.287,0.126.519,0.225a2,2,0,0,1,.4.225,1.038,1.038,0,0,1,.272.288,0.735,0.735,0,0,1,.1.394q0,0.822-1.179.822a2.36,2.36,0,0,1-1.612-.656v1.425a3.409,3.409,0,0,0,1.634.371h0Z"/>
  <path id="Parenting_Products_Services_copy_7" data-name="Parenting Products &amp; Services copy 7" class="cls-2" d="M4.824,61.8a2.763,2.763,0,0,0,2.156-.881,3.248,3.248,0,0,0,.8-2.266,2.9,2.9,0,0,0-.764-2.147,2.912,2.912,0,0,0-2.151-.762H2.421v9.5H3.752V61.8H4.824Zm-0.1-4.757a1.471,1.471,0,0,1,1.651,1.676,1.842,1.842,0,0,1-.449,1.325,1.725,1.725,0,0,1-1.308.471H3.752V57.047H4.723Zm9.068,3.79q0-2.531-2.179-2.531a3.573,3.573,0,0,0-2.1.636v1.345a2.549,2.549,0,0,1,1.853-.835q1.168,0,1.168,1.451l-1.707.285a2.038,2.038,0,0,0-1.876,2.24,2.092,2.092,0,0,0,.48,1.438,1.68,1.68,0,0,0,1.328.543,1.881,1.881,0,0,0,1.746-1.219h0.023v1.06h1.263V60.837Zm-1.258,1.67a1.941,1.941,0,0,1-.39,1.242,1.206,1.206,0,0,1-.985.494,0.919,0.919,0,0,1-.7-0.275,0.983,0.983,0,0,1-.261-0.706,1.023,1.023,0,0,1,.284-0.825,1.725,1.725,0,0,1,.845-0.321l1.207-.2v0.59Zm6.9-4.035a0.96,0.96,0,0,0-.539-0.126,1.217,1.217,0,0,0-.884.4,2.455,2.455,0,0,0-.587,1.117H17.4v-1.4h-1.3V65.25h1.3V62a3.13,3.13,0,0,1,.387-1.676,1.127,1.127,0,0,1,.966-0.616,0.964,0.964,0,0,1,.68.219V58.472Zm6.4,3.214a4.181,4.181,0,0,0-.646-2.485,2.119,2.119,0,0,0-1.825-.895,2.431,2.431,0,0,0-1.974,1,4.015,4.015,0,0,0-.795,2.581,4.138,4.138,0,0,0,.722,2.6,2.385,2.385,0,0,0,1.991.924,3.4,3.4,0,0,0,2.078-.583V63.587a2.563,2.563,0,0,1-1.69.649,1.663,1.663,0,0,1-1.289-.51,2.147,2.147,0,0,1-.491-1.451H25.83v-0.59Zm-3.919-.5a2.408,2.408,0,0,1,.48-1.266,1.183,1.183,0,0,1,.952-0.484,1.041,1.041,0,0,1,.9.461,2.233,2.233,0,0,1,.331,1.289H21.911ZM32.906,61.1a3.656,3.656,0,0,0-.494-2.077,1.63,1.63,0,0,0-1.432-.719,2.021,2.021,0,0,0-1.864,1.285H29.093V58.465H27.784V65.25h1.308V61.38a2.183,2.183,0,0,1,.387-1.328,1.174,1.174,0,0,1,.983-0.527q1.14,0,1.14,1.9V65.25h1.3V61.1Zm5.334,2.856a0.811,0.811,0,0,1-.573.225,0.708,0.708,0,0,1-.618-0.258,1.52,1.52,0,0,1-.185-0.861V59.671H38.24V58.465H36.864V56.457l-1.3.437v1.57H34.6v1.206h0.96v3.836q0,1.9,1.673,1.9a1.966,1.966,0,0,0,1.005-.225V63.958Zm3.055-7.173a0.883,0.883,0,0,0,.23-0.613,0.9,0.9,0,0,0-.23-0.63,0.733,0.733,0,0,0-.562-0.252,0.712,0.712,0,0,0-.547.252,0.9,0.9,0,0,0-.227.63,0.88,0.88,0,0,0,.227.623,0.721,0.721,0,0,0,.547.245A0.728,0.728,0,0,0,41.294,56.785Zm0.084,1.68h-1.3V65.25h1.3V58.465ZM48.914,61.1a3.657,3.657,0,0,0-.494-2.077,1.63,1.63,0,0,0-1.432-.719,2.021,2.021,0,0,0-1.864,1.285H45.1V58.465H43.793V65.25H45.1V61.38a2.183,2.183,0,0,1,.387-1.328,1.174,1.174,0,0,1,.983-0.527q1.14,0,1.14,1.9V65.25h1.3V61.1Zm7.535-2.637h-1.3v0.941H55.124a1.79,1.79,0,0,0-1.69-1.1,2.173,2.173,0,0,0-1.9,1.02,4.837,4.837,0,0,0-.691,2.75,4.114,4.114,0,0,0,.643,2.428,1.985,1.985,0,0,0,1.693.9,2.072,2.072,0,0,0,1.943-1.3h0.023v0.742q0,2.379-2.05,2.379a3.236,3.236,0,0,1-1.791-.636V68a4.123,4.123,0,0,0,1.96.444q3.184,0,3.184-3.737V58.465ZM54.737,63.61a1.3,1.3,0,0,1-1.095.573,1.227,1.227,0,0,1-1.064-.6,2.834,2.834,0,0,1-.4-1.6,3.309,3.309,0,0,1,.418-1.806,1.311,1.311,0,0,1,1.16-.646,1.23,1.23,0,0,1,1,.507,1.908,1.908,0,0,1,.4,1.223v0.881A2.416,2.416,0,0,1,54.737,63.61ZM65.282,61.8a2.763,2.763,0,0,0,2.156-.881,3.248,3.248,0,0,0,.8-2.266,2.653,2.653,0,0,0-2.914-2.909H62.879v9.5H64.21V61.8h1.073Zm-0.1-4.757a1.471,1.471,0,0,1,1.651,1.676,1.843,1.843,0,0,1-.449,1.325,1.725,1.725,0,0,1-1.308.471H64.21V57.047h0.971ZM73.5,58.472a0.96,0.96,0,0,0-.539-0.126,1.217,1.217,0,0,0-.884.4,2.454,2.454,0,0,0-.587,1.117H71.47v-1.4h-1.3V65.25h1.3V62a3.13,3.13,0,0,1,.387-1.676,1.127,1.127,0,0,1,.966-0.616,0.965,0.965,0,0,1,.68.219V58.472Zm6.264,5.96a3.941,3.941,0,0,0,.811-2.6,4.024,4.024,0,0,0-.752-2.591,2.546,2.546,0,0,0-2.1-.934,2.8,2.8,0,0,0-2.232.961,3.96,3.96,0,0,0-.828,2.67,3.8,3.8,0,0,0,.794,2.521,2.629,2.629,0,0,0,2.125.951A2.689,2.689,0,0,0,79.766,64.432Zm-0.938-4.29a3.069,3.069,0,0,1,.413,1.729,3.021,3.021,0,0,1-.413,1.716,1.346,1.346,0,0,1-1.182.6,1.416,1.416,0,0,1-1.2-.613A2.788,2.788,0,0,1,76,61.9a2.971,2.971,0,0,1,.444-1.736,1.4,1.4,0,0,1,1.207-.63A1.342,1.342,0,0,1,78.829,60.141Zm9.015-4.936h-1.3v4.2H86.519a1.762,1.762,0,0,0-1.69-1.1A2.182,2.182,0,0,0,82.95,59.32a4.64,4.64,0,0,0-.7,2.7,4.263,4.263,0,0,0,.637,2.482,1.977,1.977,0,0,0,1.7.911A2.047,2.047,0,0,0,86.519,64.1h0.022V65.25h1.3V55.205Zm-1.7,8.405a1.276,1.276,0,0,1-1.084.58,1.241,1.241,0,0,1-1.081-.6,2.9,2.9,0,0,1-.4-1.633,3.248,3.248,0,0,1,.418-1.782,1.3,1.3,0,0,1,1.148-.643,1.241,1.241,0,0,1,1.016.5,1.913,1.913,0,0,1,.4,1.226v0.888A2.445,2.445,0,0,1,86.142,63.61Zm9.13-5.145h-1.3v3.9a2.16,2.16,0,0,1-.373,1.319,1.139,1.139,0,0,1-.952.5q-1.2,0-1.2-1.829v-3.9h-1.3V62.52q0,2.889,2.038,2.889a1.857,1.857,0,0,0,1.763-1.232H93.97V65.25h1.3V58.465ZM101.8,63.6a1.907,1.907,0,0,1-1.325.59,1.632,1.632,0,0,1-1.334-.61,2.557,2.557,0,0,1-.5-1.663,2.678,2.678,0,0,1,.528-1.726,1.657,1.657,0,0,1,1.354-.659,1.908,1.908,0,0,1,1.28.53V58.631a2.875,2.875,0,0,0-1.387-.325,2.789,2.789,0,0,0-2.26,1.017,4.079,4.079,0,0,0-.845,2.693,3.7,3.7,0,0,0,.786,2.448,2.557,2.557,0,0,0,2.066.944,2.831,2.831,0,0,0,1.634-.47V63.6Zm5.037,0.358a0.811,0.811,0,0,1-.573.225,0.706,0.706,0,0,1-.617-0.258,1.516,1.516,0,0,1-.186-0.861V59.671h1.376V58.465h-1.376V56.457l-1.3.437v1.57H103.2v1.206h0.961v3.836q0,1.9,1.673,1.9a1.967,1.967,0,0,0,1.005-.225V63.958Zm3.111,1.451a3.456,3.456,0,0,0,.929-0.123,2.327,2.327,0,0,0,.778-0.374,1.876,1.876,0,0,0,.539-0.636,1.907,1.907,0,0,0,.2-0.9,2.138,2.138,0,0,0-.112-0.732,1.7,1.7,0,0,0-.32-0.543,2.3,2.3,0,0,0-.5-0.421,6.75,6.75,0,0,0-.665-0.364c-0.188-.075-0.353-0.145-0.5-0.209a1.9,1.9,0,0,1-.371-0.212,0.782,0.782,0,0,1-.233-0.268,0.807,0.807,0,0,1-.079-0.371,0.7,0.7,0,0,1,.079-0.328,0.755,0.755,0,0,1,.219-0.255,1.069,1.069,0,0,1,.34-0.166,1.55,1.55,0,0,1,.446-0.06,2.155,2.155,0,0,1,1.393.49V58.591a3.425,3.425,0,0,0-1.427-.285,2.95,2.95,0,0,0-.87.129,2.349,2.349,0,0,0-.752.384,1.9,1.9,0,0,0-.528.63,1.834,1.834,0,0,0-.2.865,2.275,2.275,0,0,0,.1.7,1.646,1.646,0,0,0,.283.533,2.009,2.009,0,0,0,.472.421,5.209,5.209,0,0,0,.637.351q0.287,0.126.52,0.225a2.016,2.016,0,0,1,.4.225,1.038,1.038,0,0,1,.272.288,0.726,0.726,0,0,1,.1.394q0,0.822-1.179.822a2.357,2.357,0,0,1-1.611-.656v1.425a3.4,3.4,0,0,0,1.634.371h0Zm15.587-.152q-0.522-.636-0.907-1.1t-0.637-.782a5.328,5.328,0,0,0,.977-3.187h-1.14a4.9,4.9,0,0,1-.039.609,5.676,5.676,0,0,1-.109.6,4.833,4.833,0,0,1-.169.557,3.463,3.463,0,0,1-.216.477q-0.467-.563-0.918-1.12t-0.9-1.12a5.832,5.832,0,0,0,.817-0.557,2.778,2.778,0,0,0,.539-0.583,2.155,2.155,0,0,0,.3-0.653,3.018,3.018,0,0,0,.092-0.779,2.2,2.2,0,0,0-.146-0.812,1.861,1.861,0,0,0-.415-0.646,1.9,1.9,0,0,0-.649-0.424,2.245,2.245,0,0,0-.845-0.152,2.318,2.318,0,0,0-.9.172,2.1,2.1,0,0,0-1.174,1.193,2.466,2.466,0,0,0-.165.914,4.047,4.047,0,0,0,.848,2.2,3.228,3.228,0,0,0-1.842,2.756,2.875,2.875,0,0,0,.188,1.06,2.339,2.339,0,0,0,.533.818,2.375,2.375,0,0,0,.834.527,3.069,3.069,0,0,0,1.095.186,3.521,3.521,0,0,0,.713-0.073,3.624,3.624,0,0,0,.683-0.212,3.55,3.55,0,0,0,.623-0.341,3.392,3.392,0,0,0,.536-0.454l0.736,0.921h1.656Zm-4.666-5.831a2.913,2.913,0,0,1-.736-1.577,1.4,1.4,0,0,1,.076-0.47,1.121,1.121,0,0,1,.214-0.368,0.913,0.913,0,0,1,.331-0.238,1.081,1.081,0,0,1,.43-0.083,0.709,0.709,0,0,1,.336.083,0.9,0.9,0,0,1,.276.225,1.145,1.145,0,0,1,.188.335,1.207,1.207,0,0,1,.07.411,2.019,2.019,0,0,1-1.185,1.683h0Zm-0.2,4.8a1.485,1.485,0,0,1-.565-0.106,1.291,1.291,0,0,1-.452-0.3,1.437,1.437,0,0,1-.3-0.48,1.734,1.734,0,0,1-.11-0.633,1.841,1.841,0,0,1,.273-1.007,2.668,2.668,0,0,1,.89-0.808q1.4,1.782,2.055,2.584a2.407,2.407,0,0,1-1.791.755h0ZM131.248,65.1a4.886,4.886,0,0,0,.584.169q0.309,0.069.6,0.106a4.187,4.187,0,0,0,.5.036,4.638,4.638,0,0,0,1.151-.139,2.723,2.723,0,0,0,.963-0.451,2.213,2.213,0,0,0,.665-0.808,2.716,2.716,0,0,0,.248-1.219,2.607,2.607,0,0,0-.166-0.958,2.84,2.84,0,0,0-.449-0.765,3.949,3.949,0,0,0-.657-0.63,9.513,9.513,0,0,0-.795-0.543c-0.273-.141-0.514-0.273-0.721-0.394a3.285,3.285,0,0,1-.528-0.374,1.368,1.368,0,0,1-.329-0.424,1.248,1.248,0,0,1-.112-0.55,1.087,1.087,0,0,1,.146-0.576,1.227,1.227,0,0,1,.379-0.391,1.588,1.588,0,0,1,.528-0.219,2.693,2.693,0,0,1,.592-0.066,2.623,2.623,0,0,1,1.763.583V55.927a3.8,3.8,0,0,0-1.841-.338,3.876,3.876,0,0,0-1.09.156,2.874,2.874,0,0,0-.952.477,2.411,2.411,0,0,0-.673.815A2.49,2.49,0,0,0,130.8,58.2a2.744,2.744,0,0,0,.149.947,2.52,2.52,0,0,0,.41.725,3.447,3.447,0,0,0,.615.586q0.354,0.265.763,0.523,0.383,0.205.716,0.394a3.956,3.956,0,0,1,.582.394,1.615,1.615,0,0,1,.384.454,1.189,1.189,0,0,1,.138.586,1.16,1.16,0,0,1-.413.961,1.981,1.981,0,0,1-1.255.331,2.609,2.609,0,0,1-.528-0.06,3.753,3.753,0,0,1-.573-0.169,3.161,3.161,0,0,1-.541-0.268,2.126,2.126,0,0,1-.441-0.358v1.623A1.714,1.714,0,0,0,131.248,65.1Zm11.624-3.412a4.184,4.184,0,0,0-.646-2.485,2.118,2.118,0,0,0-1.825-.895,2.432,2.432,0,0,0-1.974,1,4.019,4.019,0,0,0-.794,2.581,4.138,4.138,0,0,0,.721,2.6,2.386,2.386,0,0,0,1.991.924,3.407,3.407,0,0,0,2.078-.583V63.587a2.565,2.565,0,0,1-1.691.649,1.661,1.661,0,0,1-1.288-.51,2.146,2.146,0,0,1-.492-1.451h3.92v-0.59Zm-3.92-.5a2.411,2.411,0,0,1,.48-1.266,1.185,1.185,0,0,1,.952-0.484,1.042,1.042,0,0,1,.9.461,2.236,2.236,0,0,1,.331,1.289h-2.662Zm9.209-2.717a0.958,0.958,0,0,0-.539-0.126,1.216,1.216,0,0,0-.884.4,2.452,2.452,0,0,0-.587,1.117h-0.023v-1.4h-1.3V65.25h1.3V62a3.132,3.132,0,0,1,.388-1.676,1.127,1.127,0,0,1,.966-0.616,0.964,0.964,0,0,1,.679.219V58.472Zm5.677-.007L152.5,63.236a5.616,5.616,0,0,0-.158.888h-0.016a5.189,5.189,0,0,0-.18-0.914l-1.275-4.744h-1.415l2.117,6.785h1.41l2.223-6.785h-1.37Zm4.183-1.68a0.881,0.881,0,0,0,.231-0.613,0.9,0.9,0,0,0-.231-0.63,0.73,0.73,0,0,0-.561-0.252,0.713,0.713,0,0,0-.548.252,0.907,0.907,0,0,0-.227.63,0.882,0.882,0,0,0,.227.623A0.74,0.74,0,0,0,158.021,56.785Zm0.085,1.68h-1.3V65.25h1.3V58.465Zm6.53,5.135a1.909,1.909,0,0,1-1.325.59,1.632,1.632,0,0,1-1.334-.61,2.559,2.559,0,0,1-.5-1.663,2.678,2.678,0,0,1,.528-1.726,1.657,1.657,0,0,1,1.353-.659,1.91,1.91,0,0,1,1.281.53V58.631a2.875,2.875,0,0,0-1.387-.325,2.79,2.79,0,0,0-2.261,1.017,4.081,4.081,0,0,0-.845,2.693,3.7,3.7,0,0,0,.786,2.448,2.56,2.56,0,0,0,2.067.944,2.833,2.833,0,0,0,1.634-.47V63.6Zm6.873-1.915a4.184,4.184,0,0,0-.646-2.485,2.118,2.118,0,0,0-1.825-.895,2.432,2.432,0,0,0-1.974,1,4.019,4.019,0,0,0-.794,2.581,4.138,4.138,0,0,0,.721,2.6,2.386,2.386,0,0,0,1.991.924,3.407,3.407,0,0,0,2.078-.583V63.587a2.565,2.565,0,0,1-1.691.649,1.661,1.661,0,0,1-1.288-.51,2.146,2.146,0,0,1-.492-1.451h3.92v-0.59Zm-3.92-.5a2.411,2.411,0,0,1,.48-1.266,1.185,1.185,0,0,1,.952-0.484,1.042,1.042,0,0,1,.9.461,2.236,2.236,0,0,1,.331,1.289h-2.662Zm7.148,4.221a3.458,3.458,0,0,0,.93-0.123,2.312,2.312,0,0,0,.777-0.374,1.868,1.868,0,0,0,.54-0.636,1.919,1.919,0,0,0,.2-0.9,2.136,2.136,0,0,0-.113-0.732,1.677,1.677,0,0,0-.32-0.543,2.3,2.3,0,0,0-.5-0.421,6.889,6.889,0,0,0-.666-0.364q-0.281-.113-0.5-0.209a1.9,1.9,0,0,1-.37-0.212,0.782,0.782,0,0,1-.233-0.268,0.794,0.794,0,0,1-.079-0.371,0.686,0.686,0,0,1,.079-0.328,0.755,0.755,0,0,1,.219-0.255,1.064,1.064,0,0,1,.339-0.166,1.557,1.557,0,0,1,.447-0.06,2.15,2.15,0,0,1,1.392.49V58.591a3.417,3.417,0,0,0-1.426-.285,2.95,2.95,0,0,0-.87.129,2.354,2.354,0,0,0-.753.384,1.894,1.894,0,0,0-.527.63,1.822,1.822,0,0,0-.2.865,2.308,2.308,0,0,0,.095.7,1.668,1.668,0,0,0,.284.533,1.989,1.989,0,0,0,.472.421,5.136,5.136,0,0,0,.637.351q0.287,0.126.519,0.225a2,2,0,0,1,.4.225,1.038,1.038,0,0,1,.272.288,0.735,0.735,0,0,1,.1.394q0,0.822-1.179.822a2.36,2.36,0,0,1-1.612-.656v1.425a3.409,3.409,0,0,0,1.634.371h0Z"/>
</svg>
